<svg width="771" height="629" viewBox="0 0 771 629" fill="none" xmlns="http://www.w3.org/2000/svg">
<g clip-path="url(#clip0_310_447)">
<path d="M312.739 2.5L385.485 56.7213L348.016 97.873L294.261 30.2524" stroke="#191919" stroke-width="5" stroke-linecap="round" stroke-linejoin="round"/>
<path d="M556.894 50.4711L477.008 30.0966L458.231 2.5C434.624 7.4145 409.096 10.101 385.485 10.101C361.873 10.101 336.346 7.41449 312.739 2.5L293.962 30.0966L213.395 50.4711" stroke="#191919" stroke-width="5" stroke-linecap="round" stroke-linejoin="round"/>
<path d="M476.709 30.2524L422.954 97.873L385.485 56.7213L458.231 2.5M414.358 35.0789C404.418 37.5315 395.428 38.2421 385.485 38.2421C375.541 38.2421 366.551 37.5315 356.612 35.0789" stroke="#191919" stroke-width="5" stroke-linecap="round" stroke-linejoin="round"/>
<path d="M104.307 570.225L223.788 267.575L216.788 354.075C216.788 376.539 200.736 469.296 207.288 567.575" stroke="#191919" stroke-width="5" stroke-linecap="round" stroke-linejoin="round"/>
<path d="M213.395 50.4711C174.856 61.7246 125.098 103.237 82.2876 253.075L15.5352 538.525" stroke="#191919" stroke-width="5" stroke-linecap="round" stroke-linejoin="round"/>
<path d="M385.485 626.002V56.9801" stroke="#191919" stroke-width="5" stroke-linecap="round" stroke-linejoin="round"/>
<path d="M563.001 567.575C569.553 469.296 553.501 376.539 553.501 354.075L546.501 267.575L665.982 570.225" stroke="#191919" stroke-width="5" stroke-linecap="round" stroke-linejoin="round"/>
<path d="M754.754 538.525L688.001 253.075C645.191 103.237 595.433 61.7246 556.894 50.4711" stroke="#191919" stroke-width="5" stroke-linecap="round" stroke-linejoin="round"/>
<path d="M104.307 570.225L15.5352 538.525L2.5 594.267L83.0579 624.051L104.307 570.225Z" stroke="#191919" stroke-width="5" stroke-linecap="round" stroke-linejoin="round"/>
<path d="M563.001 567.575C492.39 574.781 455.434 626.002 384.804 626.002H385.485C314.855 626.002 277.899 574.781 207.288 567.575" stroke="#191919" stroke-width="5" stroke-linecap="round" stroke-linejoin="round"/>
<path d="M687.231 624.051L767.789 594.267L754.754 538.525L665.982 570.225L687.231 624.051Z" stroke="#191919" stroke-width="5" stroke-linecap="round" stroke-linejoin="round"/>
<path d="M223.788 267.575C253.759 212.616 230.863 105.431 213.395 50.4711" stroke="#191919" stroke-width="5" stroke-linecap="round" stroke-linejoin="round"/>
<path d="M556.894 50.4711C539.426 105.431 516.53 212.616 546.501 267.575" stroke="#191919" stroke-width="5" stroke-linecap="round" stroke-linejoin="round"/>
</g>
<defs>
<clipPath id="clip0_310_447">
<rect width="770.289" height="628.502" fill="white"/>
</clipPath>
</defs>
</svg>
