<svg width="843" height="670" viewBox="0 0 843 670" fill="none" xmlns="http://www.w3.org/2000/svg">
<g clip-path="url(#clip0_310_483)">
<path d="M340.204 2.5L421.5 56.7213L379.627 97.873L319.555 30.2524" stroke="#191919" stroke-width="5" stroke-linecap="round" stroke-linejoin="round"/>
<path d="M604.634 51.2574L523.779 30.0966L502.796 2.5C476.414 7.4145 447.886 10.101 421.5 10.101C395.114 10.101 366.586 7.41449 340.204 2.5L319.221 30.0966L238.366 51.2574" stroke="#191919" stroke-width="5" stroke-linecap="round" stroke-linejoin="round"/>
<path d="M523.445 30.2524L463.373 97.873L421.5 56.7213L502.796 2.5M453.766 35.0789C442.659 37.5315 432.612 38.2421 421.5 38.2421C410.388 38.2421 400.341 37.5315 389.234 35.0789" stroke="#191919" stroke-width="5" stroke-linecap="round" stroke-linejoin="round"/>
<path d="M111.747 591.052L222.5 299C222.5 299 203 515.5 210 620.5" stroke="#191919" stroke-width="5" stroke-linecap="round" stroke-linejoin="round"/>
<path d="M238.366 51.2574C192.838 66.4653 134.312 102.906 88 265L16.5 555.5" stroke="#191919" stroke-width="5" stroke-linecap="round" stroke-linejoin="round"/>
<path d="M421.5 667.096V56.9801" stroke="#191919" stroke-width="5" stroke-linecap="round" stroke-linejoin="round"/>
<path d="M633 620.5C640 515.5 620.5 299 620.5 299L731.253 591.052" stroke="#191919" stroke-width="5" stroke-linecap="round" stroke-linejoin="round"/>
<path d="M826.5 555.5L755 265C708.688 102.906 650.162 66.4653 604.634 51.2574" stroke="#191919" stroke-width="5" stroke-linecap="round" stroke-linejoin="round"/>
<path d="M16.5 555.5L2.5 614L91.4115 644.677L111.747 591.052L16.5 555.5Z" stroke="#191919" stroke-width="5" stroke-linecap="round" stroke-linejoin="round"/>
<path d="M633 620.5C557.56 628.198 496.96 667.096 421.5 667.096C346.04 667.096 285.44 628.198 210 620.5" stroke="#191919" stroke-width="5" stroke-linecap="round" stroke-linejoin="round"/>
<path d="M731.253 591.052L751.589 644.677L840.5 614L826.5 555.5L731.253 591.052Z" stroke="#191919" stroke-width="5" stroke-linecap="round" stroke-linejoin="round"/>
<path d="M222.5 299C254.521 240.282 257.028 109.976 238.366 51.2574" stroke="#191919" stroke-width="5" stroke-linecap="round" stroke-linejoin="round"/>
<path d="M604.634 51.2574C585.972 109.976 588.479 240.282 620.5 299" stroke="#191919" stroke-width="5" stroke-linecap="round" stroke-linejoin="round"/>
</g>
<defs>
<clipPath id="clip0_310_483">
<rect width="843" height="669.596" fill="white"/>
</clipPath>
</defs>
</svg>
