<svg width="755" height="631" viewBox="0 0 755 631" fill="none" xmlns="http://www.w3.org/2000/svg">
<g clip-path="url(#clip0_310_411)">
<path d="M304.451 2.5L377.197 56.7213L339.728 97.873L285.973 30.2524" stroke="#191919" stroke-width="5" stroke-linecap="round" stroke-linejoin="round"/>
<path d="M468.421 30.2524L414.666 97.873L377.197 56.7213L449.943 2.5M406.07 35.0789C396.13 37.5315 387.14 38.2421 377.197 38.2421C367.253 38.2421 358.263 37.5315 348.324 35.0789" stroke="#191919" stroke-width="5" stroke-linecap="round" stroke-linejoin="round"/>
<path d="M548.065 51.7081L468.72 30.0966L449.943 2.5C426.336 7.4145 400.808 10.101 377.197 10.101C353.586 10.101 328.058 7.41449 304.451 2.5L285.674 30.0966L205.968 51.7081" stroke="#191919" stroke-width="5" stroke-linecap="round" stroke-linejoin="round"/>
<path d="M97.459 570.711L216.5 269.174L209.5 355.674C209.5 378.138 193.448 470.895 200 569.174" stroke="#191919" stroke-width="5" stroke-linecap="round" stroke-linejoin="round"/>
<path d="M205.968 51.7081C172.119 64.6144 138.352 96.19 96.4999 242.674L17.751 542.59" stroke="#191919" stroke-width="5" stroke-linecap="round" stroke-linejoin="round"/>
<path d="M377.197 627.601V56.9801" stroke="#191919" stroke-width="5" stroke-linecap="round" stroke-linejoin="round"/>
<path d="M554.033 569.174C560.585 470.895 544.533 378.138 544.533 355.674L537.533 269.174L656.574 570.711" stroke="#191919" stroke-width="5" stroke-linecap="round" stroke-linejoin="round"/>
<path d="M736.282 542.59L657.533 242.674C615.681 96.19 581.914 64.6144 548.065 51.7081" stroke="#191919" stroke-width="5" stroke-linecap="round" stroke-linejoin="round"/>
<path d="M17.751 542.59L2.5 600.674L75 627.601L97.4589 570.711L17.751 542.59Z" stroke="#191919" stroke-width="5" stroke-linecap="round" stroke-linejoin="round"/>
<path d="M554.033 569.174C483.422 576.38 447.827 627.601 377.197 627.601H376.836C306.206 627.601 270.611 576.38 200 569.174" stroke="#191919" stroke-width="5" stroke-linecap="round" stroke-linejoin="round"/>
<path d="M656.574 570.711L679.033 627.601L751.533 600.674L736.282 542.59L656.574 570.711Z" stroke="#191919" stroke-width="5" stroke-linecap="round" stroke-linejoin="round"/>
<path d="M216.5 270.174C246.471 215.215 223.443 106.686 205.975 51.7261" stroke="#191919" stroke-width="5" stroke-linecap="round" stroke-linejoin="round"/>
<path d="M548.058 51.7261C530.59 106.686 507.562 215.215 537.533 270.174" stroke="#191919" stroke-width="5" stroke-linecap="round" stroke-linejoin="round"/>
</g>
<defs>
<clipPath id="clip0_310_411">
<rect width="754.033" height="630.101" fill="white"/>
</clipPath>
</defs>
</svg>
