<svg width="669" height="642" viewBox="0 0 669 642" fill="none" xmlns="http://www.w3.org/2000/svg">
<g clip-path="url(#clip0_309_259)">
<path d="M266.081 2.5L334.268 56.7213L299.147 97.873L248.761 30.2524" stroke="#191919" stroke-width="5" stroke-linecap="round" stroke-linejoin="round"/>
<path d="M487.769 47.4596L420.055 30.0966L402.455 2.5C380.328 7.4145 356.4 10.101 334.268 10.101C312.137 10.101 288.209 7.41449 266.081 2.5L248.481 30.0966L180.767 47.4596" stroke="#191919" stroke-width="5" stroke-linecap="round" stroke-linejoin="round"/>
<path d="M419.775 30.2524L369.389 97.873L334.268 56.7213L402.455 2.5M361.332 35.0789C352.015 37.5315 343.589 38.2421 334.268 38.2421C324.948 38.2421 316.521 37.5315 307.205 35.0789" stroke="#191919" stroke-width="5" stroke-linecap="round" stroke-linejoin="round"/>
<path d="M96.7909 466.437L191.395 254.615C191.395 254.615 144.475 503.541 150.211 604.021" stroke="#191919" stroke-width="5" stroke-linecap="round" stroke-linejoin="round"/>
<path d="M180.767 47.4595C142.973 58.0114 133.277 45.7762 58.3001 286.45L17.7646 433.253" stroke="#191919" stroke-width="5" stroke-linecap="round" stroke-linejoin="round"/>
<path d="M334.268 638.651V56.8491" stroke="#191919" stroke-width="5" stroke-linecap="round" stroke-linejoin="round"/>
<path d="M518.325 604.021C524.061 503.541 477.141 254.615 477.141 254.615L571.745 466.437" stroke="#191919" stroke-width="5" stroke-linecap="round" stroke-linejoin="round"/>
<path d="M650.771 433.253L610.236 286.45C535.259 45.7762 525.563 58.0114 487.769 47.4595" stroke="#191919" stroke-width="5" stroke-linecap="round" stroke-linejoin="round"/>
<path d="M96.7909 466.437L17.8855 433.286L17.7647 433.253L2.5 488.535L73.3291 518.968L96.7909 466.437Z" stroke="#191919" stroke-width="5" stroke-linecap="round" stroke-linejoin="round"/>
<path d="M518.325 604.021C456.508 611.388 396.102 638.811 334.268 638.811C272.434 638.811 212.028 611.388 150.211 604.021" stroke="#191919" stroke-width="5" stroke-linecap="round" stroke-linejoin="round"/>
<path d="M595.207 518.968L666.036 488.535L650.772 433.253L650.651 433.286L571.745 466.437L595.207 518.968Z" stroke="#191919" stroke-width="5" stroke-linecap="round" stroke-linejoin="round"/>
<path d="M191.395 254.615C217.633 198.425 196.059 103.65 180.767 47.4595" stroke="#191919" stroke-width="5" stroke-linecap="round" stroke-linejoin="round"/>
<path d="M487.769 47.4595C472.477 103.65 450.903 198.425 477.141 254.615" stroke="#191919" stroke-width="5" stroke-linecap="round" stroke-linejoin="round"/>
</g>
<defs>
<clipPath id="clip0_309_259">
<rect width="668.536" height="641.311" fill="white"/>
</clipPath>
</defs>
</svg>
