<svg width="733" height="672" viewBox="0 0 733 672" fill="none" xmlns="http://www.w3.org/2000/svg">
<path d="M298.173 2.5L366.36 56.7213L331.239 97.873L280.853 30.2524" stroke="#191919" stroke-width="5" stroke-linecap="round" stroke-linejoin="round"/>
<path d="M530.86 51.5L452.147 30.0966L434.547 2.5C412.42 7.4145 388.492 10.101 366.36 10.101C344.229 10.101 320.301 7.41449 298.173 2.5L280.573 30.0966L201.86 51.5" stroke="#191919" stroke-width="5" stroke-linecap="round" stroke-linejoin="round"/>
<path d="M451.867 30.2524L401.481 97.873L366.36 56.7213L434.547 2.5M393.424 35.0789C384.107 37.5315 375.681 38.2421 366.36 38.2421C357.04 38.2421 348.613 37.5315 339.297 35.0789" stroke="#191919" stroke-width="5" stroke-linecap="round" stroke-linejoin="round"/>
<path d="M366.36 668.855V56.7212" stroke="#191919" stroke-width="5" stroke-linecap="round" stroke-linejoin="round"/>
<path d="M109.966 489.184L193.247 326.462L169.785 397.499C162.114 421.499 137.062 524.538 143.288 629.579" stroke="#191919" stroke-width="5" stroke-linecap="round" stroke-linejoin="round"/>
<path d="M201.86 51.5C160.063 65.0052 148.23 49.4031 66.8602 301L21.6459 449.427" stroke="#191919" stroke-width="5" stroke-linecap="round" stroke-linejoin="round"/>
<path d="M589.432 629.579C595.658 524.538 570.606 421.499 562.935 397.499L539.473 326.462L622.754 489.184" stroke="#191919" stroke-width="5" stroke-linecap="round" stroke-linejoin="round"/>
<path d="M711.074 449.427L665.86 301C584.49 49.4031 572.657 65.0052 530.86 51.5" stroke="#191919" stroke-width="5" stroke-linecap="round" stroke-linejoin="round"/>
<path d="M109.966 489.184L21.6458 449.427L3 510.636L81.0945 545.597L109.966 489.184Z" stroke="#191919" stroke-width="5" stroke-linecap="round" stroke-linejoin="round"/>
<path d="M589.432 629.579C522.344 637.28 433.467 669.352 366.36 669.352C299.253 669.352 210.376 637.28 143.288 629.579" stroke="#191919" stroke-width="5" stroke-linecap="round" stroke-linejoin="round"/>
<path d="M651.626 545.597L729.72 510.636L711.074 449.427L622.754 489.184L651.626 545.597Z" stroke="#191919" stroke-width="5" stroke-linecap="round" stroke-linejoin="round"/>
<path d="M192.649 328C221.125 269.26 218.456 110.24 201.86 51.5" stroke="#191919" stroke-width="5" stroke-linecap="round" stroke-linejoin="round"/>
<path d="M530.86 51.5C514.264 110.24 511.595 269.26 540.071 328" stroke="#191919" stroke-width="5" stroke-linecap="round" stroke-linejoin="round"/>
</svg>
