<svg width="674" height="642" viewBox="0 0 674 642" fill="none" xmlns="http://www.w3.org/2000/svg">
<path d="M268.796 2.54004L336.983 56.7613L301.862 97.913L251.476 30.2924" stroke="#191919" stroke-width="5" stroke-linecap="round" stroke-linejoin="round"/>
<path d="M490.483 47.4996L422.769 30.1366L405.169 2.54004C383.042 7.45454 359.114 10.141 336.982 10.141C314.851 10.141 290.923 7.45453 268.795 2.54004L251.195 30.1366L183.481 47.4996" stroke="#191919" stroke-width="5" stroke-linecap="round" stroke-linejoin="round"/>
<path d="M422.489 30.2924L372.103 97.913L336.982 56.7613L405.169 2.54004M364.046 35.1189C354.73 37.5715 346.303 38.2822 336.982 38.2822C327.662 38.2822 319.235 37.5715 309.919 35.1189" stroke="#191919" stroke-width="5" stroke-linecap="round" stroke-linejoin="round"/>
<path d="M94.8535 465.001L18.6733 433.004L18.8026 433.039L3 490.652L69.9453 519.096L94.9087 465.026" stroke="#191919" stroke-width="5" stroke-linecap="round" stroke-linejoin="round"/>
<path d="M522.966 603.739C461.148 611.106 398.817 638.563 336.983 638.563C275.149 638.563 212.817 611.106 151 603.739" stroke="#191919" stroke-width="5" stroke-linecap="round" stroke-linejoin="round"/>
<path d="M579.056 465.026L604.019 519.096L670.965 490.652L655.162 433.039L655.291 433.004L579.111 465.001" stroke="#191919" stroke-width="5" stroke-linecap="round" stroke-linejoin="round"/>
<path d="M190.556 258.127C216.794 201.937 198.773 103.69 183.481 47.4996" stroke="#191919" stroke-width="5" stroke-linecap="round" stroke-linejoin="round"/>
<path d="M490.483 47.4996C475.191 103.69 457.17 201.937 483.408 258.127" stroke="#191919" stroke-width="5" stroke-linecap="round" stroke-linejoin="round"/>
<path d="M94.9087 465.026L192.183 254.333L173.879 384.426C173.879 404.862 145.263 503.259 150.999 603.739" stroke="#191919" stroke-width="5" stroke-linecap="round" stroke-linejoin="round"/>
<path d="M183.481 47.4996C154.77 56.9174 134.065 45.4937 59.0884 286.168L18.8027 433.039" stroke="#191919" stroke-width="5" stroke-linecap="round" stroke-linejoin="round"/>
<path d="M522.966 603.739C528.702 503.259 500.086 404.862 500.086 384.426L481.781 254.333L579.056 465.026" stroke="#191919" stroke-width="5" stroke-linecap="round" stroke-linejoin="round"/>
<path d="M655.162 433.039L614.876 286.168C539.899 45.4937 519.195 56.9174 490.483 47.4996" stroke="#191919" stroke-width="5" stroke-linecap="round" stroke-linejoin="round"/>
<path d="M336.982 638.563V56.7614" stroke="#191919" stroke-width="5" stroke-linecap="round" stroke-linejoin="round"/>
</svg>
